<svg id="Layer_1" data-name="Layer 1" xmlns="http://www.w3.org/2000/svg" xmlns:xlink="http://www.w3.org/1999/xlink" viewBox="0 0 2458.88 560"><defs><style>.cls-1,.cls-10,.cls-11,.cls-12,.cls-13,.cls-14,.cls-15,.cls-20,.cls-21,.cls-22,.cls-23,.cls-24,.cls-32,.cls-33,.cls-34,.cls-35,.cls-40,.cls-6,.cls-7,.cls-8,.cls-9{fill:#424344;}.cls-2{font-size:28px;fill:#fff;font-family:Montserrat-Medium, Montserrat;}.cls-3,.cls-9{letter-spacing:0em;}.cls-4,.cls-7{letter-spacing:-0.01em;}.cls-34,.cls-5{letter-spacing:0em;}.cls-28,.cls-6{letter-spacing:-0.01em;}.cls-27,.cls-8{letter-spacing:-0.02em;}.cls-10,.cls-19{letter-spacing:0em;}.cls-11{letter-spacing:-0.02em;}.cls-12{letter-spacing:-0.05em;}.cls-13,.cls-26{letter-spacing:-0.01em;}.cls-14,.cls-39{letter-spacing:0em;}.cls-15{letter-spacing:0em;}.cls-16,.cls-23{letter-spacing:0em;}.cls-17,.cls-35{letter-spacing:-0.01em;}.cls-18,.cls-33{letter-spacing:-0.02em;}.cls-20{letter-spacing:-0.01em;}.cls-21{letter-spacing:-0.02em;}.cls-22{letter-spacing:-0.01em;}.cls-24,.cls-37{letter-spacing:-0.01em;}.cls-25{letter-spacing:-0.01em;}.cls-29{letter-spacing:0.01em;}.cls-30{letter-spacing:-0.02em;}.cls-31{letter-spacing:0.01em;}.cls-32{letter-spacing:-0.02em;}.cls-36{letter-spacing:-0.03em;}.cls-38{letter-spacing:-0.01em;}.cls-40{letter-spacing:-0.01em;}</style></defs><title>cover</title><image width="1044" height="619" transform="translate(1515.18) scale(0.9)" xlink:href="../assets/kaori_by_sosobol0_d85rje7.jpg"/><text x="538.88"></text><polygon class="cls-1" points="654.04 0 1193.01 437.92 1117 559.53 538.88 560 538.88 0 654.04 0"/><text class="cls-2" transform="translate(655.04 225.8)">I&apos;m muhamm<tspan class="cls-3" x="195.24" y="0">a</tspan><tspan x="212.07" y="0">d </tspan><tspan class="cls-4" x="238.7" y="0">f</tspan><tspan class="cls-5" x="248.3" y="0">a</tspan><tspan class="cls-1" x="265.04" y="0">h</tspan><tspan class="cls-6" x="284.11" y="0">r</tspan><tspan class="cls-1" x="295.4" y="0">ian</tspan><tspan class="cls-7" x="339.02" y="0">s</tspan><tspan class="cls-8" x="352.77" y="0">y</tspan><tspan class="cls-1" x="367.94" y="0">ah, Bo</tspan><tspan class="cls-6" x="456.62" y="0">r</tspan><tspan class="cls-1" x="467.9" y="0">n in I</tspan><tspan class="cls-9" x="537.59" y="0">n</tspan><tspan class="cls-1" x="556.75" y="0">do</tspan><tspan class="cls-9" x="593.62" y="0">n</tspan><tspan class="cls-10" x="612.77" y="0">esia</tspan><tspan class="cls-11" x="668.49" y="0">-</tspan><tspan class="cls-12" x="678.57" y="0">W</tspan><tspan class="cls-1" x="708.56" y="0">est J</tspan><tspan class="cls-13" x="773.21" y="0">a</tspan><tspan class="cls-8" x="789.68" y="0">v</tspan><tspan class="cls-1" x="804.85" y="0">a Ju</tspan><tspan class="cls-14" x="862.45" y="0">n</tspan><tspan class="cls-1" x="881.6" y="0">e 25, </tspan><tspan class="cls-15" x="952.3" y="0">2</tspan><tspan class="cls-1" x="968.29" y="0">0</tspan><tspan class="cls-16" x="986.96" y="0">0</tspan><tspan x="1005.55" y="0">1, </tspan><tspan x="0" y="33.6">I studied </tspan><tspan class="cls-17" x="131.46" y="33.6">c</tspan><tspan class="cls-5" x="147.22" y="33.6">ompu</tspan><tspan class="cls-18" x="232.65" y="33.6">t</tspan><tspan x="243.74" y="33.6">e</tspan><tspan class="cls-16" x="260.87" y="33.6">r</tspan><tspan class="cls-19" x="272.27" y="33.6">s s</tspan><tspan class="cls-1" x="307.86" y="33.6">i</tspan><tspan class="cls-14" x="315.67" y="33.6">n</tspan><tspan class="cls-20" x="334.82" y="33.6">c</tspan><tspan class="cls-1" x="350.58" y="33.6">e I </tspan><tspan class="cls-21" x="391.46" y="33.6">w</tspan><tspan class="cls-1" x="416.16" y="33.6">as 13 </tspan><tspan class="cls-22" x="488.37" y="33.6">ye</tspan><tspan class="cls-1" x="520.32" y="33.6">a</tspan><tspan class="cls-23" x="537.06" y="33.6">r</tspan><tspan class="cls-1" x="548.46" y="33.6">s old, Just a d</tspan><tspan class="cls-7" x="738.43" y="33.6">e</tspan><tspan class="cls-24" x="755.29" y="33.6">v</tspan><tspan class="cls-1" x="770.52" y="33.6">eloper with an affini</tspan><tspan class="cls-7" x="1056.46" y="33.6">t</tspan><tspan class="cls-1" x="1067.77" y="33.6">y </tspan><tspan class="cls-20" x="1090.95" y="33.6">f</tspan><tspan class="cls-1" x="1100.61" y="33.6">o</tspan><tspan class="cls-6" x="1118.39" y="33.6">r</tspan><tspan class="cls-5" x="1129.67" y="33.6">h</tspan><tspan class="cls-25" x="1148.74" y="33.6">p</tspan><tspan x="1167.5" y="33.6">, </tspan><tspan x="0" y="67.2">J</tspan><tspan class="cls-26" x="14.36" y="67.2">a</tspan><tspan class="cls-27" x="30.83" y="67.2">v</tspan><tspan x="46" y="67.2">asc</tspan><tspan class="cls-28" x="92.76" y="67.2">r</tspan><tspan x="104.05" y="67.2">ip</tspan><tspan class="cls-29" x="130.95" y="67.2">t</tspan><tspan x="142.83" y="67.2">, G</tspan><tspan class="cls-30" x="178.33" y="67.2">O</tspan><tspan x="201.29" y="67.2">, </tspan><tspan class="cls-28" x="215.18" y="67.2">P</tspan><tspan class="cls-31" x="235.2" y="67.2">y</tspan><tspan x="251.27" y="67.2">t</tspan><tspan class="cls-3" x="262.86" y="67.2">h</tspan><tspan x="282.01" y="67.2">on. </tspan><tspan class="cls-28" x="332.75" y="67.2">L</tspan><tspan class="cls-32" x="349.18" y="67.2">ov</tspan><tspan class="cls-1" x="381.78" y="67.2">es per</tspan><tspan class="cls-20" x="468.18" y="67.2">f</tspan><tspan class="cls-1" x="477.84" y="67.2">o</tspan><tspan class="cls-6" x="495.62" y="67.2">r</tspan><tspan class="cls-1" x="506.91" y="67.2">ma</tspan><tspan class="cls-9" x="553.25" y="67.2">n</tspan><tspan class="cls-20" x="572.4" y="67.2">c</tspan><tspan class="cls-10" x="588.16" y="67.2">e a</tspan><tspan class="cls-9" x="629.57" y="67.2">n</tspan><tspan class="cls-1" x="648.72" y="67.2">d </tspan><tspan class="cls-33" x="675.35" y="67.2">t</tspan><tspan class="cls-1" x="686.44" y="67.2">e</tspan><tspan class="cls-6" x="703.58" y="67.2">c</tspan><tspan class="cls-34" x="719.37" y="67.2">h</tspan><tspan class="cls-14" x="738.44" y="67.2">n</tspan><tspan class="cls-34" x="757.59" y="67.2">olog</tspan><tspan class="cls-35" x="820.28" y="67.2">y</tspan><tspan class="cls-36" x="835.71" y="67.2">y</tspan><tspan x="850.44" y="67.2">. </tspan><tspan class="cls-37" x="0" y="100.8">v</tspan><tspan class="cls-19" x="15.23" y="100.8">e</tspan><tspan class="cls-31" x="32.37" y="100.8">r</tspan><tspan x="44.27" y="100.8">y in</tspan><tspan class="cls-18" x="94.33" y="100.8">t</tspan><tspan x="105.42" y="100.8">e</tspan><tspan class="cls-38" x="122.55" y="100.8">r</tspan><tspan class="cls-19" x="133.7" y="100.8">es</tspan><tspan class="cls-18" x="164.86" y="100.8">t</tspan><tspan x="175.95" y="100.8">ed in Ai a</tspan><tspan class="cls-3" x="306.71" y="100.8">n</tspan><tspan x="325.86" y="100.8">d M</tspan><tspan class="cls-39" x="379.23" y="100.8">a</tspan><tspan class="cls-40" x="396.06" y="100.8">c</tspan><tspan class="cls-1" x="411.85" y="100.8">hi</tspan><tspan class="cls-9" x="438.73" y="100.8">n</tspan><tspan class="cls-10" x="457.88" y="100.8">e </tspan><tspan class="cls-6" x="482.55" y="100.8">L</tspan><tspan class="cls-24" x="498.98" y="100.8">e</tspan><tspan class="cls-1" x="515.7" y="100.8">a</tspan><tspan class="cls-40" x="532.44" y="100.8">r</tspan><tspan class="cls-1" x="543.73" y="100.8">ni</tspan><tspan class="cls-14" x="570.61" y="100.8">n</tspan><tspan class="cls-1" x="589.76" y="100.8">g</tspan></text></svg>